<svg xmlns="http://www.w3.org/2000/svg" viewBox="0 0 32 32">
  <!-- Assembly of different colored Lego bricks -->
  
  <!-- Bottom brick - Cosmic (purple) -->
  <rect x="2" y="20" width="28" height="10" rx="1" fill="#4B0082" stroke="#3a0066" stroke-width="0.5"/>
  <line x1="2" y1="21" x2="30" y2="21" stroke="#6a20a2" stroke-width="0.5"/>
  
  <!-- Middle brick - Biological (green) -->
  <rect x="6" y="12" width="20" height="8" rx="1" fill="#228B22" stroke="#1a6b1a" stroke-width="0.5"/>
  <line x1="6" y1="13" x2="26" y2="13" stroke="#32ab32" stroke-width="0.5"/>
  
  <!-- Top brick - Technological (red) -->
  <rect x="10" y="6" width="12" height="6" rx="1" fill="#DC143C" stroke="#bc0f2c" stroke-width="0.5"/>
  
  <!-- Lego studs on top -->
  <circle cx="13" cy="4" r="2" fill="#DC143C" stroke="#bc0f2c" stroke-width="0.5"/>
  <circle cx="19" cy="4" r="2" fill="#DC143C" stroke="#bc0f2c" stroke-width="0.5"/>
  
  <!-- Highlights on studs -->
  <circle cx="13" cy="3.5" r="0.8" fill="#ff4466" opacity="0.6"/>
  <circle cx="19" cy="3.5" r="0.8" fill="#ff4466" opacity="0.6"/>
  
  <!-- Assembly connections (studs connecting bricks) -->
  <circle cx="11" cy="12" r="1.5" fill="#4B0082" opacity="0.3"/>
  <circle cx="16" cy="12" r="1.5" fill="#4B0082" opacity="0.3"/>
  <circle cx="21" cy="12" r="1.5" fill="#4B0082" opacity="0.3"/>
  
  <circle cx="13" cy="20" r="1.5" fill="#228B22" opacity="0.3"/>
  <circle cx="19" cy="20" r="1.5" fill="#228B22" opacity="0.3"/>
  
  <!-- Gradient overlays for depth -->
  <defs>
    <linearGradient id="depth-gradient" x1="0%" y1="0%" x2="0%" y2="100%">
      <stop offset="0%" style="stop-color:#ffffff;stop-opacity:0.2" />
      <stop offset="100%" style="stop-color:#000000;stop-opacity:0.3" />
    </linearGradient>
  </defs>
  
  <rect x="2" y="20" width="28" height="10" rx="1" fill="url(#depth-gradient)"/>
  <rect x="6" y="12" width="20" height="8" rx="1" fill="url(#depth-gradient)"/>
  <rect x="10" y="6" width="12" height="6" rx="1" fill="url(#depth-gradient)"/>
</svg>